<svg width="153" height="13" viewBox="0 0 153 13" fill="none" xmlns="http://www.w3.org/2000/svg">
<path d="M1.568 10.104C0.896 9.41333 0.56 8.54533 0.56 7.5C0.56 6.45467 0.896 5.58667 1.568 4.896C2.24 4.20533 3.07067 3.86 4.06 3.86C5.208 3.86 6.118 4.27067 6.79 5.092C7.07933 5.456 7.28933 5.862 7.42 6.31H6.3C6.19733 6.058 6.04333 5.82467 5.838 5.61C5.39 5.14333 4.79733 4.91 4.06 4.91C3.37867 4.91 2.80933 5.15267 2.352 5.638C1.904 6.12333 1.68 6.744 1.68 7.5C1.68 8.256 1.91333 8.87667 2.38 9.362C2.84667 9.84733 3.40667 10.09 4.06 10.09C4.82533 10.09 5.43667 9.83333 5.894 9.32C6.09933 9.10533 6.258 8.84867 6.37 8.55H7.49C7.36867 9.026 7.154 9.46 6.846 9.852C6.13667 10.7107 5.208 11.14 4.06 11.14C3.07067 11.14 2.24 10.7947 1.568 10.104ZM9.45602 10.104C8.80268 9.404 8.47602 8.536 8.47602 7.5C8.47602 6.464 8.80268 5.60067 9.45602 4.91C10.1093 4.21 10.9027 3.86 11.836 3.86C12.424 3.86 12.9187 3.972 13.32 4.196C13.7307 4.42 14.0293 4.66267 14.216 4.924L14.342 5.134H14.356V4H15.476V11H14.356V9.88H14.342L14.216 10.076C14.048 10.328 13.7587 10.5707 13.348 10.804C12.9373 11.028 12.4333 11.14 11.836 11.14C10.9027 11.14 10.1093 10.7947 9.45602 10.104ZM10.268 5.638C9.82002 6.12333 9.59602 6.744 9.59602 7.5C9.59602 8.256 9.82002 8.87667 10.268 9.362C10.7253 9.84733 11.2947 10.09 11.976 10.09C12.6573 10.09 13.222 9.84733 13.67 9.362C14.1273 8.87667 14.356 8.256 14.356 7.5C14.356 6.744 14.1273 6.12333 13.67 5.638C13.222 5.15267 12.6573 4.91 11.976 4.91C11.2947 4.91 10.7253 5.15267 10.268 5.638ZM17.4409 11V4H18.5609V9.25L18.5469 9.39H18.5749L22.3409 4H23.6009V11H22.4809V5.75L22.4949 5.61H22.4669L18.7009 11H17.4409ZM18.4489 1.2H19.4989C19.4989 1.452 19.5876 1.65733 19.7649 1.816C19.9423 1.96533 20.2036 2.04 20.5489 2.04C20.8943 2.04 21.1556 1.96533 21.3329 1.816C21.5103 1.65733 21.5989 1.452 21.5989 1.2H22.6489C22.6489 1.71333 22.4623 2.13333 22.0889 2.46C21.7156 2.78667 21.2023 2.95 20.5489 2.95C19.8956 2.95 19.3823 2.78667 19.0089 2.46C18.6356 2.13333 18.4489 1.71333 18.4489 1.2ZM24.652 5.05V4H30.672V5.05H28.222V11H27.102V5.05H24.652ZM35.816 10.104C35.144 9.41333 34.808 8.54533 34.808 7.5C34.808 6.45467 35.144 5.58667 35.816 4.896C36.488 4.20533 37.3187 3.86 38.308 3.86C39.456 3.86 40.366 4.27067 41.038 5.092C41.3274 5.456 41.5374 5.862 41.668 6.31H40.548C40.4454 6.058 40.2914 5.82467 40.086 5.61C39.638 5.14333 39.0454 4.91 38.308 4.91C37.6267 4.91 37.0574 5.15267 36.6 5.638C36.152 6.12333 35.928 6.744 35.928 7.5C35.928 8.256 36.1614 8.87667 36.628 9.362C37.0947 9.84733 37.6547 10.09 38.308 10.09C39.0734 10.09 39.6847 9.83333 40.142 9.32C40.3474 9.10533 40.506 8.84867 40.618 8.55H41.738C41.6167 9.026 41.402 9.46 41.094 9.852C40.3847 10.7107 39.456 11.14 38.308 11.14C37.3187 11.14 36.488 10.7947 35.816 10.104ZM42.2341 12.61V9.95H43.0041L44.6141 4H47.5541L49.1641 9.95H49.9341V12.61H48.8141V11H43.3541V12.61H42.2341ZM44.1241 9.95H48.0441L46.7141 5.05H45.4541L44.1241 9.95ZM51.58 10.104C50.8987 9.41333 50.558 8.54533 50.558 7.5C50.558 6.45467 50.8987 5.58667 51.58 4.896C52.2614 4.20533 53.1107 3.86 54.128 3.86C55.1454 3.86 55.9947 4.20067 56.676 4.882C57.3574 5.56333 57.698 6.41267 57.698 7.43V7.85H51.678C51.7527 8.50333 52.0187 9.04 52.476 9.46C52.9334 9.88 53.484 10.09 54.128 10.09C54.8187 10.09 55.4114 9.88 55.906 9.46C56.13 9.27333 56.3074 9.06333 56.438 8.83H57.558C57.39 9.26867 57.152 9.656 56.844 9.992C56.116 10.7573 55.2107 11.14 54.128 11.14C53.1107 11.14 52.2614 10.7947 51.58 10.104ZM51.706 6.87H56.508C56.424 6.31933 56.1674 5.85733 55.738 5.484C55.3087 5.10133 54.772 4.91 54.128 4.91C53.484 4.91 52.9427 5.10133 52.504 5.484C52.0654 5.85733 51.7994 6.31933 51.706 6.87ZM58.3959 11L60.3559 4H63.2959L65.2559 11H64.0659L62.4559 5.05H61.1959L59.5859 11H58.3959ZM66.9326 10.104C66.2792 9.404 65.9526 8.536 65.9526 7.5C65.9526 6.464 66.2792 5.60067 66.9326 4.91C67.5859 4.21 68.3792 3.86 69.3126 3.86C69.9006 3.86 70.3952 3.972 70.7966 4.196C71.2072 4.42 71.5059 4.66267 71.6926 4.924L71.8186 5.134H71.8326V4H72.9526V11H71.8326V9.88H71.8186L71.6926 10.076C71.5246 10.328 71.2352 10.5707 70.8246 10.804C70.4139 11.028 69.9099 11.14 69.3126 11.14C68.3792 11.14 67.5859 10.7947 66.9326 10.104ZM67.7446 5.638C67.2966 6.12333 67.0726 6.744 67.0726 7.5C67.0726 8.256 67.2966 8.87667 67.7446 9.362C68.2019 9.84733 68.7712 10.09 69.4526 10.09C70.1339 10.09 70.6986 9.84733 71.1466 9.362C71.6039 8.87667 71.8326 8.256 71.8326 7.5C71.8326 6.744 71.6039 6.12333 71.1466 5.638C70.6986 5.15267 70.1339 4.91 69.4526 4.91C68.7712 4.91 68.2019 5.15267 67.7446 5.638ZM74.0775 11L76.0375 4H78.9775L80.9375 11H79.7475L78.1375 5.05H76.8775L75.2675 11H74.0775ZM82.6142 10.104C81.9609 9.404 81.6342 8.536 81.6342 7.5C81.6342 6.464 81.9609 5.60067 82.6142 4.91C83.2676 4.21 84.0609 3.86 84.9942 3.86C85.5822 3.86 86.0769 3.972 86.4782 4.196C86.8889 4.42 87.1876 4.66267 87.3742 4.924L87.5002 5.134H87.5142V4H88.6342V11H87.5142V9.88H87.5002L87.3742 10.076C87.2062 10.328 86.9169 10.5707 86.5062 10.804C86.0956 11.028 85.5916 11.14 84.9942 11.14C84.0609 11.14 83.2676 10.7947 82.6142 10.104ZM83.4262 5.638C82.9782 6.12333 82.7542 6.744 82.7542 7.5C82.7542 8.256 82.9782 8.87667 83.4262 9.362C83.8836 9.84733 84.4529 10.09 85.1342 10.09C85.8156 10.09 86.3802 9.84733 86.8282 9.362C87.2856 8.87667 87.5142 8.256 87.5142 7.5C87.5142 6.744 87.2856 6.12333 86.8282 5.638C86.3802 5.15267 85.8156 4.91 85.1342 4.91C84.4529 4.91 83.8836 5.15267 83.4262 5.638Z" fill="white"/>
<path d="M94.523 11V1.2H96.133V5.26H97.743L100.683 1.2H102.573L99.143 5.89L102.713 11H100.753L97.813 6.8H96.133V11H94.523ZM104.283 9.796C103.284 8.80667 102.785 7.57467 102.785 6.1C102.785 4.62533 103.284 3.39333 104.283 2.404C105.281 1.41467 106.532 0.92 108.035 0.92C109.537 0.92 110.788 1.41467 111.787 2.404C112.785 3.39333 113.285 4.62533 113.285 6.1C113.285 7.57467 112.785 8.80667 111.787 9.796C110.788 10.7853 109.537 11.28 108.035 11.28C106.532 11.28 105.281 10.7853 104.283 9.796ZM105.459 3.468C104.796 4.14 104.465 5.01733 104.465 6.1C104.465 7.18267 104.796 8.06 105.459 8.732C106.121 9.404 106.98 9.74 108.035 9.74C109.08 9.74 109.934 9.404 110.597 8.732C111.269 8.06 111.605 7.18267 111.605 6.1C111.605 5.01733 111.269 4.14 110.597 3.468C109.934 2.796 109.08 2.46 108.035 2.46C106.98 2.46 106.121 2.796 105.459 3.468ZM114.826 11V1.2H117.486L120.146 7.29H120.496L123.156 1.2H125.746V11H124.136V4.14L124.276 2.81H124.136L121.546 8.76H119.026L116.436 2.81H116.296L116.436 4.14V11H114.826ZM127.705 11V1.2H134.775V2.74H129.315V5.26H133.725V6.8H129.315V9.46H134.775V11H127.705ZM135.41 2.74V1.2H143.46V2.74H140.24V11H138.63V2.74H135.41ZM143.245 11L145.765 1.2H149.755L152.345 11H150.665L149.993 8.48H145.485L144.855 11H143.245ZM145.905 6.94H149.601L148.495 2.74H146.955L145.905 6.94Z" fill="#DA4D4D"/>
</svg>
