<svg width="28" height="28" viewBox="0 0 28 28" fill="none" xmlns="http://www.w3.org/2000/svg">
    <path
        d="M9.9248 0.693359H18.0892C25.5466 0.693359 27.307 2.46762 27.307 9.92504V18.0894C27.307 25.5468 25.5327 27.3072 18.0753 27.3072H9.91094C2.45351 27.3072 0.693115 25.533 0.693115 18.0755V9.91118C0.693115 2.46762 2.46737 0.693359 9.9248 0.693359Z"
        fill="#5181B8" />


    <path fill-rule="evenodd" clip-rule="evenodd"
        d="M22.4832 9.85537C22.608 9.43953 22.4832 9.14844 21.901 9.14844H19.9605C19.4614 9.14844 19.2397 9.4118 19.1149 9.70289C19.1149 9.70289 18.1308 12.1148 16.7308 13.6672C16.2733 14.1247 16.0793 14.2633 15.8298 14.2633C15.705 14.2633 15.5248 14.1247 15.5248 13.7088V9.85537C15.5248 9.35636 15.3862 9.14844 14.9704 9.14844H11.9208C11.6159 9.14844 11.4218 9.38408 11.4218 9.592C11.4218 10.0633 12.1149 10.1742 12.1981 11.4772V14.3326C12.1981 14.9564 12.0872 15.0672 11.8377 15.0672C11.1862 15.0672 9.57828 12.6554 8.6357 9.88309C8.44164 9.37022 8.26144 9.14844 7.76243 9.14844H5.82184C5.26739 9.14844 5.15649 9.4118 5.15649 9.70289C5.15649 10.2158 5.80798 12.7663 8.21986 16.1346C9.82778 18.4356 12.0872 19.6831 14.1387 19.6831C15.3723 19.6831 15.5248 19.4059 15.5248 18.9346V17.188C15.5248 16.6336 15.6357 16.5227 16.0377 16.5227C16.3288 16.5227 16.8139 16.6613 17.9644 17.7702C19.2812 19.0871 19.503 19.6831 20.2377 19.6831H22.1783C22.7327 19.6831 23.01 19.4059 22.8436 18.8653C22.6634 18.3247 22.0397 17.5346 21.208 16.592C20.7506 16.0514 20.0713 15.4831 19.8773 15.192C19.5862 14.8177 19.6694 14.6514 19.8773 14.3326C19.8773 14.3187 22.2476 10.992 22.4832 9.85537Z"
        fill="white" />
</svg>